# xmcd
#
# Track frame offsets:
#	150
#	11815
#	30101
#	43494
#	55552
#	69041
#	89951
#	107896
#	117744
#	127523
#	141987
#	154149
#	170999
#	184176
#	194977
#	205998
#	214544
#	228585
#	240155
#	254170
#
# Disc length: 3658 seconds
#
# Revision: 1
# Processed by: cddbd v1.5.2PL0 Copyright (c) Steve Scherf et al.
# Submitted via: audiograbber 1.83.01
#
DISCID=2d0e4814
DTITLE=Captain O'Malley and His Fishermen - Shanties and Songs of the Sea
DYEAR=2016
DGENRE=Shanty
TTITLE0=When The Boat Comes In
TTITLE1=Barrett's Privateers
TTITLE2=John B Sail (Sloop John B)
TTITLE3=A Sailor's Life
TTITLE4=No Hopers, Jokers and Rogues
TTITLE5=Around The Wild Cape Horn
TTITLE6=Fisherman's Blues
TTITLE7=Tommy's Gone To Hilo
TTITLE8=The Bonny Ship The Diamond
TTITLE9=Go To Sea No More
TTITLE10=Nancy Of Yarmouth
TTITLE11=The Little Pot Stove
TTITLE12=A Sailor Isn't A Sailor
TTITLE13=All For Me Grog
TTITLE14=Goodbye Fare Ye Well
TTITLE15=Haul Away The Bowline
TTITLE16=Homeward Bound
TTITLE17=Sing Fare You Well
TTITLE18=The Black Ball Line
TTITLE19=The Shallow Sea
EXTD=
EXTT0=
EXTT1=
EXTT2=
EXTT3=
EXTT4=
EXTT5=
EXTT6=
EXTT7=
EXTT8=
EXTT9=
EXTT10=
EXTT11=
EXTT12=
EXTT13=
EXTT14=
EXTT15=
EXTT16=
EXTT17=
EXTT18=
EXTT19=
PLAYORDER=
